// ------------------------------
//  Sonatina Symphonic Orchestra
// ------------------------------
//      Trumpets Staccato
// ------------------------------

<group>
loop_mode=one_shot
seq_position=1
seq_length=2
fil_veltrack=11000
fil_type=lpf_2p
cutoff=120

<region>
sample=samples/trumpets/trumpets-stc-rr1-e3.mp3
lokey=e3
hikey=f3
pitch_keycenter=e3

<region>
sample=samples/trumpets/trumpets-stc-rr1-g3.mp3
lokey=f#3
hikey=g#3
pitch_keycenter=g3

<region>
sample=samples/trumpets/trumpets-stc-rr1-a#3.mp3
lokey=a3
hikey=b3
pitch_keycenter=a#3

<region>
sample=samples/trumpets/trumpets-stc-rr1-c#4.mp3
lokey=c4
hikey=d4
pitch_keycenter=c#4

<region>
sample=samples/trumpets/trumpets-stc-rr1-e4.mp3
lokey=d#4
hikey=f4
pitch_keycenter=e4

<region>
sample=samples/trumpets/trumpets-stc-rr1-g4.mp3
lokey=f#4
hikey=g#4
pitch_keycenter=g4

<region>
sample=samples/trumpets/trumpets-stc-rr1-a#4.mp3
lokey=a4
hikey=b4
pitch_keycenter=a#4

<region>
sample=samples/trumpets/trumpets-stc-rr1-c#5.mp3
lokey=c5
hikey=d5
pitch_keycenter=c#5

<region>
sample=samples/trumpets/trumpets-stc-rr1-e5.mp3
lokey=d#5
hikey=f5
pitch_keycenter=e5

<region>
sample=samples/trumpets/trumpets-stc-rr1-g5.mp3
lokey=f#5
hikey=g#5
pitch_keycenter=g5

<region>
sample=samples/trumpets/trumpets-stc-rr1-a#5.mp3
lokey=a5
hikey=b5
pitch_keycenter=a#5

<region>
sample=samples/trumpets/trumpets-stc-rr1-c#6.mp3
lokey=c6
hikey=d6
pitch_keycenter=c#6

<region>
sample=samples/trumpets/trumpets-stc-rr1-e6.mp3
lokey=d#6
hikey=e6
pitch_keycenter=e6


<group>
loop_mode=one_shot
seq_position=2
seq_length=2
transpose=-1
fil_veltrack=11000
fil_type=lpf_2p
cutoff=120

<region>
sample=samples/trumpets/trumpets-stc-rr2-e3.mp3
lokey=e3
hikey=f3
pitch_keycenter=e3

<region>
sample=samples/trumpets/trumpets-stc-rr2-g3.mp3
lokey=f#3
hikey=g#3
pitch_keycenter=g3

<region>
sample=samples/trumpets/trumpets-stc-rr2-a#3.mp3
lokey=a3
hikey=b3
pitch_keycenter=a#3

<region>
sample=samples/trumpets/trumpets-stc-rr2-c#4.mp3
lokey=c4
hikey=d4
pitch_keycenter=c#4

<region>
sample=samples/trumpets/trumpets-stc-rr2-e4.mp3
lokey=d#4
hikey=f4
pitch_keycenter=e4

<region>
sample=samples/trumpets/trumpets-stc-rr2-g4.mp3
lokey=f#4
hikey=g#4
pitch_keycenter=g4

<region>
sample=samples/trumpets/trumpets-stc-rr2-a#4.mp3
lokey=a4
hikey=b4
pitch_keycenter=a#4

<region>
sample=samples/trumpets/trumpets-stc-rr2-c#5.mp3
lokey=c5
hikey=d5
pitch_keycenter=c#5

<region>
sample=samples/trumpets/trumpets-stc-rr2-e5.mp3
lokey=d#5
hikey=f5
pitch_keycenter=e5

<region>
sample=samples/trumpets/trumpets-stc-rr2-g5.mp3
lokey=f#5
hikey=g#5
pitch_keycenter=g5

<region>
sample=samples/trumpets/trumpets-stc-rr2-a#5.mp3
lokey=a5
hikey=b5
pitch_keycenter=a#5

<region>
sample=samples/trumpets/trumpets-stc-rr2-c#6.mp3
lokey=c6
hikey=d6
pitch_keycenter=c#6

<region>
sample=samples/trumpets/trumpets-stc-rr2-e6.mp3
lokey=d#6
hikey=e6
pitch_keycenter=e6

